<svg xmlns="http://www.w3.org/2000/svg" width="960" height="540" viewBox="0 0 960 540">
  <defs><linearGradient id="bg" x1="0" y1="0" x2="1" y2="1"><stop stop-color="#14151d"/><stop offset="1" stop-color="#24212d"/></linearGradient><filter id="s"><feDropShadow dx="0" dy="12" stdDeviation="14" flood-opacity=".4"/></filter></defs>
  <rect width="960" height="540" rx="32" fill="url(#bg)"/>
  <text x="480" y="56" fill="#c9b8ff" font-family="sans-serif" font-size="22" font-weight="700" text-anchor="middle" letter-spacing="4">REMEMBER THE SET</text>
  <rect x="70" y="88" width="820" height="382" rx="30" fill="#e9e3d7" stroke="#6d6578" stroke-width="6" filter="url(#s)"/>
  <g font-family="sans-serif" font-size="17" fill="#292631" text-anchor="middle">
    <g transform="translate(130 150)"><rect width="190" height="250" rx="22" fill="#fffdf8" stroke="#b8afbf" stroke-width="3"/><rect x="45" y="53" width="100" height="72" rx="10" fill="#5b7fd0" stroke="#292631" stroke-width="4"/><circle cx="95" cy="89" r="27" fill="#e9e3d7" stroke="#292631" stroke-width="4"/><text x="95" y="205">CAMERA</text></g>
    <g transform="translate(385 150)"><rect width="190" height="250" rx="22" fill="#fffdf8" stroke="#ffb84d" stroke-width="7"/><path d="M95 42l55 60-55 61-55-61z" fill="#4e9a72" stroke="#292631" stroke-width="4"/><path d="M95 60v88" stroke="#292631" stroke-width="4"/><text x="95" y="205">LEAF</text></g>
    <g transform="translate(640 150)"><rect width="190" height="250" rx="22" fill="#fffdf8" stroke="#b8afbf" stroke-width="3"/><path d="M95 38l14 42 44 1-35 26 13 42-36-25-36 25 13-42-35-26 44-1z" fill="#c7a548" stroke="#292631" stroke-width="4"/><text x="95" y="205">STAR</text></g>
  </g>
  <circle cx="575" cy="145" r="22" fill="#ffb84d"/><path d="M565 145l8 8 15-19" fill="none" stroke="#191720" stroke-width="5" stroke-linecap="round" stroke-linejoin="round"/>
</svg>
