<svg xmlns="http://www.w3.org/2000/svg" viewBox="0 0 1024 500">
  <defs>
    <radialGradient id="bg" cx="58%" cy="42%" r="70%"><stop offset="0" stop-color="#241748"/><stop offset="0.55" stop-color="#12101B"/><stop offset="1" stop-color="#07070D"/></radialGradient>
    <linearGradient id="gold" x1="0" x2="1"><stop offset="0" stop-color="#FFE1A0"/><stop offset="1" stop-color="#B98537"/></linearGradient>
    <filter id="glow"><feGaussianBlur stdDeviation="7" result="b"/><feMerge><feMergeNode in="b"/><feMergeNode in="SourceGraphic"/></feMerge></filter>
    <filter id="shadow"><feDropShadow dx="0" dy="14" stdDeviation="16" flood-color="#000" flood-opacity="0.45"/></filter>
  </defs>
  <rect width="1024" height="500" fill="url(#bg)"/>
  <circle cx="820" cy="90" r="230" fill="#6A3DFF" opacity="0.16"/>
  <circle cx="205" cy="425" r="260" fill="#FFB84D" opacity="0.10"/>
  <g opacity="0.12" stroke="#C9B8FF" stroke-width="2">
    <path d="M60 95h904M60 165h904M60 235h904M60 305h904M60 375h904"/>
    <path d="M150 40v420M285 40v420M420 40v420M555 40v420M690 40v420M825 40v420"/>
  </g>
  <g transform="translate(656 250)" filter="url(#glow)">
    <path d="M-210 0C-130-108 130-108 210 0C130 108-130 108-210 0Z" fill="#130F20" stroke="#8A68FF" stroke-width="10"/>
    <circle r="78" fill="#0B0A12" stroke="url(#gold)" stroke-width="12"/>
    <circle r="31" fill="#F6E8C4" opacity="0.95"/>
    <path d="M-156 0C-92-56 92-56 156 0" stroke="#C9B8FF" stroke-width="5" fill="none" opacity="0.65"/>
  </g>
  <g filter="url(#shadow)">
    <text x="72" y="140" fill="#C9B8FF" font-family="Arial, sans-serif" font-size="26" font-weight="700" letter-spacing="6">ITTYBITTYBITES</text>
    <text x="72" y="222" fill="#FFFFFF" font-family="Arial, sans-serif" font-size="72" font-weight="900" letter-spacing="1">Two Second</text>
    <text x="72" y="302" fill="#FFFFFF" font-family="Arial, sans-serif" font-size="72" font-weight="900" letter-spacing="1">Witness</text>
    <text x="76" y="362" fill="#FFCF78" font-family="Arial, sans-serif" font-size="30" font-weight="700" letter-spacing="3">OBSERVE • REMEMBER • RECALL</text>
  </g>
  <rect x="72" y="402" width="346" height="46" rx="23" fill="#6A3DFF" opacity="0.95"/>
  <text x="245" y="434" text-anchor="middle" fill="#FFFFFF" font-family="Arial, sans-serif" font-size="22" font-weight="800">Premium observation challenges</text>
</svg>
